<mxfile host="Electron" agent="Mozilla/5.0 (Windows NT 10.0; Win64; x64) AppleWebKit/537.36 (KHTML, like Gecko) draw.io/28.1.2 Chrome/138.0.7204.243 Electron/37.4.0 Safari/537.36" version="28.1.2">
  <diagram name="Página-1" id="r0UVrAv6POPTPjJwRw9B">
    <mxGraphModel dx="1426" dy="841" grid="1" gridSize="10" guides="1" tooltips="1" connect="1" arrows="1" fold="1" page="1" pageScale="1" pageWidth="4681" pageHeight="3300" math="0" shadow="0">
      <root>
        <mxCell id="0" />
        <mxCell id="1" parent="0" />
        <mxCell id="iecZEjUUATgrMTUiqe-K-1" value="Treinamento" style="rounded=1;arcSize=10;whiteSpace=wrap;html=1;align=center;" vertex="1" parent="1">
          <mxGeometry x="950" y="240" width="100" height="40" as="geometry" />
        </mxCell>
        <mxCell id="iecZEjUUATgrMTUiqe-K-5" value="" style="edgeStyle=orthogonalEdgeStyle;rounded=0;orthogonalLoop=1;jettySize=auto;html=1;" edge="1" parent="1" source="iecZEjUUATgrMTUiqe-K-2" target="iecZEjUUATgrMTUiqe-K-4">
          <mxGeometry relative="1" as="geometry" />
        </mxCell>
        <mxCell id="iecZEjUUATgrMTUiqe-K-2" value="Colaborador" style="rounded=1;arcSize=10;whiteSpace=wrap;html=1;align=center;" vertex="1" parent="1">
          <mxGeometry x="160" y="240" width="100" height="40" as="geometry" />
        </mxCell>
        <mxCell id="iecZEjUUATgrMTUiqe-K-8" value="" style="edgeStyle=orthogonalEdgeStyle;rounded=0;orthogonalLoop=1;jettySize=auto;html=1;" edge="1" parent="1" source="iecZEjUUATgrMTUiqe-K-3" target="iecZEjUUATgrMTUiqe-K-7">
          <mxGeometry relative="1" as="geometry" />
        </mxCell>
        <mxCell id="iecZEjUUATgrMTUiqe-K-3" value="Participacao" style="rounded=1;arcSize=10;whiteSpace=wrap;html=1;align=center;" vertex="1" parent="1">
          <mxGeometry x="550" y="240" width="100" height="40" as="geometry" />
        </mxCell>
        <mxCell id="iecZEjUUATgrMTUiqe-K-6" style="edgeStyle=orthogonalEdgeStyle;rounded=0;orthogonalLoop=1;jettySize=auto;html=1;entryX=0;entryY=0.5;entryDx=0;entryDy=0;" edge="1" parent="1" source="iecZEjUUATgrMTUiqe-K-4" target="iecZEjUUATgrMTUiqe-K-3">
          <mxGeometry relative="1" as="geometry" />
        </mxCell>
        <mxCell id="iecZEjUUATgrMTUiqe-K-4" value="Participa" style="rhombus;whiteSpace=wrap;html=1;rounded=1;arcSize=10;" vertex="1" parent="1">
          <mxGeometry x="370" y="220" width="80" height="80" as="geometry" />
        </mxCell>
        <mxCell id="iecZEjUUATgrMTUiqe-K-9" style="edgeStyle=orthogonalEdgeStyle;rounded=0;orthogonalLoop=1;jettySize=auto;html=1;entryX=0;entryY=0.5;entryDx=0;entryDy=0;" edge="1" parent="1" source="iecZEjUUATgrMTUiqe-K-7" target="iecZEjUUATgrMTUiqe-K-1">
          <mxGeometry relative="1" as="geometry" />
        </mxCell>
        <mxCell id="iecZEjUUATgrMTUiqe-K-7" value="seleciona" style="rhombus;whiteSpace=wrap;html=1;rounded=1;arcSize=10;" vertex="1" parent="1">
          <mxGeometry x="760" y="220" width="80" height="80" as="geometry" />
        </mxCell>
        <mxCell id="iecZEjUUATgrMTUiqe-K-12" style="edgeStyle=orthogonalEdgeStyle;rounded=0;orthogonalLoop=1;jettySize=auto;html=1;entryX=0.5;entryY=1;entryDx=0;entryDy=0;" edge="1" parent="1" source="iecZEjUUATgrMTUiqe-K-10" target="iecZEjUUATgrMTUiqe-K-3">
          <mxGeometry relative="1" as="geometry" />
        </mxCell>
        <mxCell id="iecZEjUUATgrMTUiqe-K-10" value="Status_colaborador" style="ellipse;whiteSpace=wrap;html=1;align=center;" vertex="1" parent="1">
          <mxGeometry x="540" y="370" width="120" height="40" as="geometry" />
        </mxCell>
        <mxCell id="iecZEjUUATgrMTUiqe-K-13" style="edgeStyle=orthogonalEdgeStyle;rounded=0;orthogonalLoop=1;jettySize=auto;html=1;entryX=0.5;entryY=0;entryDx=0;entryDy=0;" edge="1" parent="1" source="iecZEjUUATgrMTUiqe-K-11" target="iecZEjUUATgrMTUiqe-K-3">
          <mxGeometry relative="1" as="geometry" />
        </mxCell>
        <mxCell id="iecZEjUUATgrMTUiqe-K-11" value="data_incrição" style="ellipse;whiteSpace=wrap;html=1;align=center;" vertex="1" parent="1">
          <mxGeometry x="550" y="100" width="100" height="40" as="geometry" />
        </mxCell>
        <mxCell id="iecZEjUUATgrMTUiqe-K-15" style="edgeStyle=orthogonalEdgeStyle;rounded=0;orthogonalLoop=1;jettySize=auto;html=1;exitX=1;exitY=0.5;exitDx=0;exitDy=0;entryX=0.25;entryY=1;entryDx=0;entryDy=0;" edge="1" parent="1" source="iecZEjUUATgrMTUiqe-K-14" target="iecZEjUUATgrMTUiqe-K-3">
          <mxGeometry relative="1" as="geometry" />
        </mxCell>
        <mxCell id="iecZEjUUATgrMTUiqe-K-14" value="id_participacao" style="ellipse;whiteSpace=wrap;html=1;align=center;fontStyle=4" vertex="1" parent="1">
          <mxGeometry x="450" y="320" width="100" height="40" as="geometry" />
        </mxCell>
        <mxCell id="iecZEjUUATgrMTUiqe-K-21" style="edgeStyle=orthogonalEdgeStyle;rounded=0;orthogonalLoop=1;jettySize=auto;html=1;entryX=0.5;entryY=0;entryDx=0;entryDy=0;" edge="1" parent="1" source="iecZEjUUATgrMTUiqe-K-16" target="iecZEjUUATgrMTUiqe-K-2">
          <mxGeometry relative="1" as="geometry" />
        </mxCell>
        <mxCell id="iecZEjUUATgrMTUiqe-K-16" value="nome" style="ellipse;whiteSpace=wrap;html=1;align=center;" vertex="1" parent="1">
          <mxGeometry x="160" y="100" width="100" height="40" as="geometry" />
        </mxCell>
        <mxCell id="iecZEjUUATgrMTUiqe-K-20" style="edgeStyle=orthogonalEdgeStyle;rounded=0;orthogonalLoop=1;jettySize=auto;html=1;entryX=0;entryY=0;entryDx=0;entryDy=0;" edge="1" parent="1" source="iecZEjUUATgrMTUiqe-K-17" target="iecZEjUUATgrMTUiqe-K-2">
          <mxGeometry relative="1" as="geometry" />
        </mxCell>
        <mxCell id="iecZEjUUATgrMTUiqe-K-17" value="matricula" style="ellipse;whiteSpace=wrap;html=1;align=center;fontStyle=4" vertex="1" parent="1">
          <mxGeometry x="60" y="140" width="100" height="40" as="geometry" />
        </mxCell>
        <mxCell id="iecZEjUUATgrMTUiqe-K-19" style="edgeStyle=orthogonalEdgeStyle;rounded=0;orthogonalLoop=1;jettySize=auto;html=1;entryX=1;entryY=0;entryDx=0;entryDy=0;" edge="1" parent="1" source="iecZEjUUATgrMTUiqe-K-18" target="iecZEjUUATgrMTUiqe-K-2">
          <mxGeometry relative="1" as="geometry" />
        </mxCell>
        <mxCell id="iecZEjUUATgrMTUiqe-K-18" value="setor" style="ellipse;whiteSpace=wrap;html=1;align=center;" vertex="1" parent="1">
          <mxGeometry x="260" y="140" width="100" height="40" as="geometry" />
        </mxCell>
        <mxCell id="iecZEjUUATgrMTUiqe-K-29" style="edgeStyle=orthogonalEdgeStyle;rounded=0;orthogonalLoop=1;jettySize=auto;html=1;entryX=0.5;entryY=0;entryDx=0;entryDy=0;" edge="1" parent="1" source="iecZEjUUATgrMTUiqe-K-23" target="iecZEjUUATgrMTUiqe-K-1">
          <mxGeometry relative="1" as="geometry" />
        </mxCell>
        <mxCell id="iecZEjUUATgrMTUiqe-K-23" value="tema" style="ellipse;whiteSpace=wrap;html=1;align=center;" vertex="1" parent="1">
          <mxGeometry x="950" y="90" width="100" height="40" as="geometry" />
        </mxCell>
        <mxCell id="iecZEjUUATgrMTUiqe-K-28" style="edgeStyle=orthogonalEdgeStyle;rounded=0;orthogonalLoop=1;jettySize=auto;html=1;exitX=0;exitY=0.5;exitDx=0;exitDy=0;entryX=0.75;entryY=0;entryDx=0;entryDy=0;" edge="1" parent="1" source="iecZEjUUATgrMTUiqe-K-25" target="iecZEjUUATgrMTUiqe-K-1">
          <mxGeometry relative="1" as="geometry" />
        </mxCell>
        <mxCell id="iecZEjUUATgrMTUiqe-K-25" value="Responsavel" style="ellipse;whiteSpace=wrap;html=1;align=center;" vertex="1" parent="1">
          <mxGeometry x="1050" y="130" width="100" height="40" as="geometry" />
        </mxCell>
        <mxCell id="iecZEjUUATgrMTUiqe-K-27" style="edgeStyle=orthogonalEdgeStyle;rounded=0;orthogonalLoop=1;jettySize=auto;html=1;exitX=1;exitY=0.5;exitDx=0;exitDy=0;entryX=0.25;entryY=0;entryDx=0;entryDy=0;" edge="1" parent="1" source="iecZEjUUATgrMTUiqe-K-26" target="iecZEjUUATgrMTUiqe-K-1">
          <mxGeometry relative="1" as="geometry" />
        </mxCell>
        <mxCell id="iecZEjUUATgrMTUiqe-K-26" value="carga_horaria" style="ellipse;whiteSpace=wrap;html=1;align=center;" vertex="1" parent="1">
          <mxGeometry x="850" y="130" width="100" height="40" as="geometry" />
        </mxCell>
        <mxCell id="iecZEjUUATgrMTUiqe-K-30" value="N" style="text;html=1;align=center;verticalAlign=middle;resizable=0;points=[];autosize=1;strokeColor=none;fillColor=none;" vertex="1" parent="1">
          <mxGeometry x="260" y="240" width="30" height="30" as="geometry" />
        </mxCell>
        <mxCell id="iecZEjUUATgrMTUiqe-K-31" value="N" style="text;html=1;align=center;verticalAlign=middle;resizable=0;points=[];autosize=1;strokeColor=none;fillColor=none;" vertex="1" parent="1">
          <mxGeometry x="920" y="240" width="30" height="30" as="geometry" />
        </mxCell>
        <mxCell id="iecZEjUUATgrMTUiqe-K-32" value="N" style="text;html=1;align=center;verticalAlign=middle;resizable=0;points=[];autosize=1;strokeColor=none;fillColor=none;" vertex="1" parent="1">
          <mxGeometry x="650" y="240" width="30" height="30" as="geometry" />
        </mxCell>
        <mxCell id="iecZEjUUATgrMTUiqe-K-33" value="N" style="text;html=1;align=center;verticalAlign=middle;resizable=0;points=[];autosize=1;strokeColor=none;fillColor=none;" vertex="1" parent="1">
          <mxGeometry x="520" y="240" width="30" height="30" as="geometry" />
        </mxCell>
      </root>
    </mxGraphModel>
  </diagram>
</mxfile>
